Coordinates
version=1
nRows=14
nColumns=40
inDegrees=yes

Units are S.I. units (second, meters, Newtons, ...)
If the header above contains a line with 'inDegrees', this indicates whether rotational values are in degrees (yes) or radians (no).

endheader
time	pelvis_tilt	pelvis_list	pelvis_rotation	pelvis_tx	pelvis_ty	pelvis_tz	hip_flexion_r	hip_adduction_r	hip_rotation_r	knee_angle_r	knee_angle_r_beta	ankle_angle_r	subtalar_angle_r	mtp_angle_r	hip_flexion_l	hip_adduction_l	hip_rotation_l	knee_angle_l	knee_angle_l_beta	ankle_angle_l	subtalar_angle_l	mtp_angle_l	lumbar_extension	lumbar_bending	lumbar_rotation	arm_flex_r	arm_add_r	arm_rot_r	elbow_flex_r	pro_sup_r	wrist_flex_r	wrist_dev_r	arm_flex_l	arm_add_l	arm_rot_l	elbow_flex_l	pro_sup_l	wrist_flex_l	wrist_dev_l
      3.89166667	    -15.11922773	     -4.82286814	      0.12839211	     -0.37539936	      1.14275553	      0.05385220	     76.23873730	     -3.66487532	     -4.43852327	     72.58339767	      1.26681927	     -5.46955930	     -8.74983414	      0.00000000	     67.34663333	    -11.12216166	     10.12574010	     90.91433560	      1.58675449	     -8.50615915	     -4.99760886	      0.00000000	    -43.07174207	      2.81511317	      8.23479229	     89.87897200	    -15.96940811	     34.92476853	     23.92762893	     87.99696095	      0.00000000	      0.00000000	     89.42077866	     -2.70414479	     31.49393534	     19.67126162	     87.67119047	      0.00000000	      0.00000000
      3.90000000	    -15.04915244	     -4.32382322	      0.11302132	     -0.37508389	      1.14285403	      0.05305409	     74.54498798	     -3.83177186	     -4.19437457	     69.98429926	      1.22145645	     -6.92516403	     -8.34830662	      0.00000000	     68.39582754	    -10.71738071	     10.01243891	     93.27132672	      1.62789175	     -7.05800386	     -4.91098459	      0.00000000	    -43.10889093	      2.41351121	      7.88366613	     89.87871486	    -15.90860391	     34.92176141	     23.77534313	     87.99310398	      0.00000000	      0.00000000	     89.40594838	     -2.71088193	     31.54536000	     19.67152327	     87.67453978	      0.00000000	      0.00000000
      3.90833333	    -14.78244903	     -4.28630834	     -0.07022472	     -0.37439457	      1.14332093	      0.05307015	     72.43341101	     -3.52760088	     -4.47478500	     67.32811837	      1.17509734	     -8.02817140	     -8.69535860	      0.00000000	     69.39034836	    -10.88861129	     10.32553810	     95.61633529	      1.66881987	     -5.37126607	     -3.72378005	      0.00000000	    -43.36943449	      2.22678248	      8.00194255	     89.87805660	    -15.88576536	     34.88470674	     23.62987545	     87.98832140	      0.00000000	      0.00000000	     89.41107015	     -2.67352806	     31.69611891	     19.63102613	     87.65385810	      0.00000000	      0.00000000
      3.91666667	    -14.86983929	     -3.70876561	     -0.01074552	     -0.37430257	      1.14355773	      0.05220406	     70.75946777	     -3.63115970	     -3.98643172	     64.88994632	      1.13254321	     -8.57670886	     -8.68381809	      0.00000000	     70.66260424	    -10.35281084	     10.24067728	     97.62120023	      1.70381136	     -4.58901294	     -3.58673752	      0.00000000	    -43.28495872	      1.80715353	      7.52880661	     89.87547587	    -15.83063128	     34.83173635	     23.47924538	     88.03829368	      0.00000000	      0.00000000	     89.42041560	     -2.67694351	     31.72254994	     19.65762858	     87.70454290	      0.00000000	      0.00000000
      3.92500000	    -14.75533939	     -3.94951943	     -0.25594261	     -0.37374324	      1.14391107	      0.05261314	     68.77128101	     -3.15462997	     -4.37852815	     62.19831784	      1.08556544	    -10.39903459	     -8.90372891	      0.00000000	     71.92744486	    -10.73703741	     10.90767910	     99.77296829	      1.74136680	     -2.70820532	     -1.98153513	      0.00000000	    -43.40008797	      1.78795893	      7.88797663	     89.87645155	    -15.82160440	     34.78780950	     23.29441309	     87.98038837	      0.00000000	      0.00000000	     89.43201464	     -2.62546860	     32.00332267	     19.59953949	     87.63792282	      0.00000000	      0.00000000
      3.93333333	    -14.67666285	     -3.40765143	     -0.16544900	     -0.37318462	      1.14422256	      0.05180119	     66.99828297	     -3.40214912	     -4.05000570	     59.96660337	      1.04661467	    -11.27664019	     -8.78414759	      0.00000000	     73.10492295	    -10.25361316	     10.79660740	    101.75442619	      1.77594977	     -1.46715505	     -2.04948152	      0.00000000	    -43.45933599	      1.39939830	      7.42941546	     89.87562110	    -15.76456589	     34.83149169	     23.07552168	     87.97580295	      0.00000000	      0.00000000	     89.42706070	     -2.61791663	     32.07940972	     19.60003889	     87.64520300	      0.00000000	      0.00000000
      3.94166667	    -14.21798789	     -3.50052578	     -0.19109441	     -0.37210732	      1.14510289	      0.05172628	     64.71096361	     -3.06828780	     -4.17078596	     57.76020943	      1.00810583	    -12.43224675	     -9.24951724	      0.00000000	     74.00948564	    -10.34320386	     11.25263789	    103.64387907	      1.80892694	     -0.23992842	     -0.80422504	      0.00000000	    -43.93264805	      1.39866076	      7.54868382	     89.87345538	    -15.79169792	     34.77395826	     22.96490132	     87.95785407	      0.00000000	      0.00000000	     89.45736287	     -2.57671737	     32.37707926	     19.58652540	     87.60244172	      0.00000000	      0.00000000
      3.95000000	    -14.07987094	     -3.07028406	     -0.13571836	     -0.37143487	      1.14549690	      0.05107438	     62.86127743	     -3.22163090	     -3.94472067	     55.60958103	      0.97057028	    -13.53861669	     -9.26305357	      0.00000000	     75.18237616	    -10.03615883	     11.10928341	    105.37512887	      1.83914295	      0.85614123	     -0.58646963	      0.00000000	    -44.05981923	      1.07003410	      7.20304067	     89.87149009	    -15.77392214	     34.85041577	     22.79208810	     87.96053180	      0.00000000	      0.00000000	     89.45054900	     -2.56608212	     32.49611047	     19.58283285	     87.61511322	      0.00000000	      0.00000000
      3.95833333	    -13.99314424	     -2.59513298	     -0.04433331	     -0.37084611	      1.14586790	      0.05044363	     61.11804904	     -3.38433682	     -3.55329299	     53.68320234	      0.93694863	    -14.06830326	     -9.33318692	      0.00000000	     76.47633187	     -9.65580231	     10.95644173	    106.94221220	      1.86649371	      1.32565485	     -0.24452632	      0.00000000	    -44.14312636	      0.71390958	      6.80470488	     89.86727091	    -15.78005172	     34.91462914	     22.62539455	     87.97532161	      0.00000000	      0.00000000	     89.46091798	     -2.52590630	     32.56663897	     19.55419153	     87.62921061	      0.00000000	      0.00000000
      3.96666667	    -13.46794174	     -2.66006210	     -0.05171597	     -0.36976997	      1.14696385	      0.05042040	     58.84901270	     -3.09223094	     -3.64107600	     51.77140752	      0.90358152	    -15.44660095	    -10.02611322	      0.00000000	     77.34492617	     -9.71806963	     11.36304661	    108.44046267	      1.89264312	      2.27915549	      0.86192307	      0.00000000	    -44.69829268	      0.69464028	      6.90535162	     89.86627373	    -15.87233091	     35.08809036	     22.62014453	     87.91772923	      0.00000000	      0.00000000	     89.49299544	     -2.49881854	     32.83955491	     19.57577386	     87.60257126	      0.00000000	      0.00000000
      3.97500000	    -13.43509610	     -2.25399514	      0.06039882	     -0.36932218	      1.14719394	      0.04992474	     57.32508597	     -3.24723823	     -3.32279674	     50.20216021	      0.87619299	    -15.94919104	    -10.19777451	      0.00000000	     78.75190152	     -9.34942941	     11.21179183	    109.73904743	      1.91530770	      2.72022521	      0.97377618	      0.00000000	    -44.72693843	      0.41096487	      6.55160654	     89.86080359	    -15.88645032	     35.12542436	     22.45767200	     87.93809473	      0.00000000	      0.00000000	     89.48664741	     -2.48115794	     32.86269887	     19.57438950	     87.61800157	      0.00000000	      0.00000000
      3.98333333	    -13.08672959	     -2.36763998	      0.29473088	     -0.36859204	      1.14802549	      0.04978322	     55.43078932	     -2.95765614	     -3.18625780	     48.65545910	      0.84919796	    -17.38741886	    -11.58851924	      0.00000000	     79.91584774	     -9.12346083	     11.59977291	    110.90966320	      1.93573880	      3.70554924	      0.82041223	      0.00000000	    -45.10098301	      0.57860645	      6.51252753	     89.85831036	    -15.98467161	     35.33395863	     22.43839753	     87.85082408	      0.00000000	      0.00000000	     89.52800485	     -2.43038261	     33.10127276	     19.57327262	     87.55924785	      0.00000000	      0.00000000
      3.99166667	    -12.96328232	     -2.02548714	      0.35870228	     -0.36803035	      1.14836949	      0.04915525	     53.96697194	     -3.09073770	     -2.90133367	     47.41306919	      0.82751417	    -18.08902626	    -11.68658786	      0.00000000	     81.20904874	     -8.83993983	     11.36072346	    111.95004034	      1.95389680	      4.09156754	      0.77778763	      0.00000000	    -45.21823174	      0.33963868	      6.25326965	     89.85386283	    -16.01557737	     35.40677837	     22.28482820	     87.91379441	      0.00000000	      0.00000000	     89.52339113	     -2.39157752	     33.15186503	     19.56417897	     87.61778815	      0.00000000	      0.00000000
      4.00000000	    -12.67663514	     -1.75004608	      0.40595521	     -0.36734446	      1.14902128	      0.04869973	     52.39236957	     -3.14679643	     -2.62262165	     46.30287325	      0.80813759	    -19.05620621	    -12.03626521	      0.00000000	     82.32751132	     -8.66035942	     11.14853664	    112.82277903	      1.96912897	      4.36801619	      0.54893668	      0.00000000	    -45.51973570	      0.10970091	      6.05661750	     89.85036493	    -16.09968216	     35.54349211	     22.21591730	     87.91153113	      0.00000000	      0.00000000	     89.53604506	     -2.31515778	     33.25891214	     19.54392188	     87.63136541	      0.00000000	      0.00000000
